# xmcd
#
# Track frame offsets: 
#        150
#        13509
#        27459
#        40485
#        53365
#        67907
#        80495
#        92076
#        103736
#        114487
#        126391
#        140304
#        154380
#        167291
#        177008
#        189085
#        202798
#        213753
#
# Disc length: 3013 seconds
#
# Revision: 0
# Processed by: cddbd v1.5.2PL0 Copyright (c) Steve Scherf et al.
# Submitted via: ExactAudioCopyFreeDBPlugin 1.0
#
DISCID=e00bc312
DTITLE=Howlin' Wolf - Singles 1954-1957
DYEAR=1900
DGENRE=Blues
TTITLE0=No Place To Go
TTITLE1=Rockin' Daddy
TTITLE2=Baby How Long
TTITLE3=Evil Is Going On
TTITLE4=I'll Be Around
TTITLE5=Forty-Four
TTITLE6=Who Will Be Next
TTITLE7=I Have A Little Girl
TTITLE8=Come To Me Baby
TTITLE9=Don't Mess With My Baby
TTITLE10=Smokestack Lightning
TTITLE11=You Can't Be Beat
TTITLE12=I Asked For Water (She Gave Me Gasoline)
TTITLE13=So Glad
TTITLE14=Goin' Back Home
TTITLE15=My Life
TTITLE16=Somebody In My Home
TTITLE17=Nature
EXTD=
EXTT0=
EXTT1=
EXTT2=
EXTT3=
EXTT4=
EXTT5=
EXTT6=
EXTT7=
EXTT8=
EXTT9=
EXTT10=
EXTT11=
EXTT12=
EXTT13=
EXTT14=
EXTT15=
EXTT16=
EXTT17=
PLAYORDER=
